<svg xmlns="http://www.w3.org/2000/svg" viewBox="0 0 240 240" role="img" aria-labelledby="title desc">
  <title id="title">Cherry Blossom Pop</title>
  <desc id="desc">A soft pink cherry blossom in a classic five-petal emoji-inspired style.</desc>
  <defs>
    <radialGradient id="cbPetal" cx="50%" cy="44%" r="70%">
      <stop offset="0%" stop-color="#ffd8e8" />
      <stop offset="100%" stop-color="#ee93b6" />
    </radialGradient>
    <radialGradient id="cbPetalInner" cx="50%" cy="40%" r="65%">
      <stop offset="0%" stop-color="#ffcbe0" />
      <stop offset="100%" stop-color="#e781aa" />
    </radialGradient>
    <radialGradient id="cbCore" cx="50%" cy="50%" r="60%">
      <stop offset="0%" stop-color="#fff7fb" />
      <stop offset="100%" stop-color="#f5abc6" />
    </radialGradient>
    <linearGradient id="cbStem" x1="0" y1="0" x2="0" y2="1">
      <stop offset="0%" stop-color="#66bf68" />
      <stop offset="100%" stop-color="#318348" />
    </linearGradient>
    <filter id="cbGlow" x="-30%" y="-30%" width="160%" height="160%">
      <feGaussianBlur stdDeviation="3" />
    </filter>
  </defs>
  <style>
    .stem-group {
      transform-origin: 120px 226px;
      animation: cbStemSway 4.5s ease-in-out infinite;
    }

    .blossom {
      transform-origin: 120px 108px;
      animation: cbPop 3s ease-in-out infinite;
    }

    .halo {
      animation: cbHalo 3.1s ease-in-out infinite;
    }

    @keyframes cbPop {
      0%,
      100% { transform: translateY(-10px) scale(0.97); }
      50% { transform: translateY(-10px) scale(1.05); }
    }

    @keyframes cbHalo {
      0%,
      100% { opacity: 0.32; }
      50% { opacity: 0.62; }
    }

    @keyframes cbStemSway {
      0%,
      100% { transform: rotate(-1.8deg); }
      50% { transform: rotate(1.8deg); }
    }
  </style>

  <ellipse class="halo" cx="120" cy="104" rx="66" ry="52" fill="#ffc9de" filter="url(#cbGlow)" />

  <g class="stem-group">
    <path d="M120 226 C114 193, 114 162, 120 136" stroke="url(#cbStem)" stroke-width="8" stroke-linecap="round" fill="none" />
    <path d="M116 181 C94 171, 88 153, 104 145 C121 138, 131 156, 116 181 Z" fill="#52ab5f" />
    <path d="M124 168 C146 158, 154 141, 138 134 C122 127, 112 145, 124 168 Z" fill="#6bc276" />
  </g>

  <g class="blossom">
    <path d="M120 68 C102 71, 90 88, 96 110 C107 116, 116 109, 120 99 C124 109, 133 116, 144 110 C150 88, 138 71, 120 68 Z" fill="url(#cbPetal)" />
    <path d="M120 68 C102 71, 90 88, 96 110 C107 116, 116 109, 120 99 C124 109, 133 116, 144 110 C150 88, 138 71, 120 68 Z" fill="url(#cbPetal)" transform="rotate(72 120 108)" />
    <path d="M120 68 C102 71, 90 88, 96 110 C107 116, 116 109, 120 99 C124 109, 133 116, 144 110 C150 88, 138 71, 120 68 Z" fill="url(#cbPetal)" transform="rotate(144 120 108)" />
    <path d="M120 68 C102 71, 90 88, 96 110 C107 116, 116 109, 120 99 C124 109, 133 116, 144 110 C150 88, 138 71, 120 68 Z" fill="url(#cbPetal)" transform="rotate(216 120 108)" />
    <path d="M120 68 C102 71, 90 88, 96 110 C107 116, 116 109, 120 99 C124 109, 133 116, 144 110 C150 88, 138 71, 120 68 Z" fill="url(#cbPetal)" transform="rotate(288 120 108)" />

    <path d="M120 80 C108 82, 100 93, 104 108 C112 112, 118 108, 120 102 C122 108, 128 112, 136 108 C140 93, 132 82, 120 80 Z" fill="url(#cbPetalInner)" />
    <path d="M120 80 C108 82, 100 93, 104 108 C112 112, 118 108, 120 102 C122 108, 128 112, 136 108 C140 93, 132 82, 120 80 Z" fill="url(#cbPetalInner)" transform="rotate(72 120 108)" />
    <path d="M120 80 C108 82, 100 93, 104 108 C112 112, 118 108, 120 102 C122 108, 128 112, 136 108 C140 93, 132 82, 120 80 Z" fill="url(#cbPetalInner)" transform="rotate(144 120 108)" />
    <path d="M120 80 C108 82, 100 93, 104 108 C112 112, 118 108, 120 102 C122 108, 128 112, 136 108 C140 93, 132 82, 120 80 Z" fill="url(#cbPetalInner)" transform="rotate(216 120 108)" />
    <path d="M120 80 C108 82, 100 93, 104 108 C112 112, 118 108, 120 102 C122 108, 128 112, 136 108 C140 93, 132 82, 120 80 Z" fill="url(#cbPetalInner)" transform="rotate(288 120 108)" />

    <circle cx="120" cy="108" r="16" fill="url(#cbCore)" />
    <circle cx="120" cy="108" r="6" fill="#f0a15c" />
    <circle cx="113" cy="105" r="1.2" fill="#f7bf83" />
    <circle cx="127" cy="105" r="1.2" fill="#f7bf83" />
    <circle cx="120" cy="114" r="1.2" fill="#f7bf83" />
  </g>
</svg>
