<svg xmlns="http://www.w3.org/2000/svg" viewBox="0 0 240 260" role="img" aria-labelledby="title desc">
  <title id="title">Rose Bloom</title>
  <desc id="desc">A rose bloom opening gently on a stem.</desc>
  <defs>
    <linearGradient id="rStem" x1="0" y1="0" x2="0" y2="1">
      <stop offset="0%" stop-color="#69b86a" />
      <stop offset="100%" stop-color="#2f7a3a" />
    </linearGradient>
    <linearGradient id="rPetalA" x1="0" y1="0" x2="1" y2="1">
      <stop offset="0%" stop-color="#ff8fb2" />
      <stop offset="100%" stop-color="#d83f70" />
    </linearGradient>
    <linearGradient id="rPetalB" x1="0" y1="0" x2="0" y2="1">
      <stop offset="0%" stop-color="#f86795" />
      <stop offset="100%" stop-color="#b92f5d" />
    </linearGradient>
  </defs>
  <style>
    .plant {
      transform-origin: 120px 228px;
      animation: roseSway 4.8s ease-in-out infinite;
    }

    .bud {
      transform-origin: 120px 92px;
      animation: roseOpen 3.4s ease-in-out infinite;
    }

    .inner-petal {
      transform-origin: 120px 104px;
      animation: roseInner 3.4s ease-in-out infinite;
    }

    .r-leaf {
      transform-box: fill-box;
      transform-origin: center;
      animation: roseLeafFlutter 4.4s ease-in-out infinite;
    }

    .r-leaf.alt {
      animation-delay: -2.2s;
    }

    @keyframes roseSway {
      0%,
      100% { transform: rotate(-1.9deg); }
      50% { transform: rotate(2.4deg); }
    }

    @keyframes roseOpen {
      0%,
      100% { transform: scale(0.97) rotate(0deg); }
      50% { transform: scale(1.04) rotate(-1deg); }
    }

    @keyframes roseInner {
      0%,
      100% { transform: scale(0.94); }
      50% { transform: scale(1.07); }
    }

    @keyframes roseLeafFlutter {
      0%, 100% { transform: rotate(-6deg) scale(0.97); }
      50% { transform: rotate(6deg) scale(1.05); }
    }
  </style>

  <g class="plant">
    <path d="M120 228 C111 186, 113 139, 120 106" stroke="url(#rStem)" stroke-width="8" stroke-linecap="round" fill="none" />
    <path class="r-leaf" d="M116 171 C92 160, 85 141, 103 134 C122 126, 132 147, 116 171 Z" fill="#55aa58" transform="rotate(0 110 151)" />
    <path class="r-leaf alt" d="M124 156 C147 146, 157 127, 140 120 C123 113, 112 133, 124 156 Z" fill="#69bc6b" transform="rotate(0 127 138)" />

    <g class="bud">
      <path d="M120 126 C98 126, 84 110, 91 88 C101 71, 112 77, 120 90 C128 77, 139 71, 149 88 C156 110, 142 126, 120 126 Z" fill="url(#rPetalA)" />
      <path d="M106 105 C97 96, 98 80, 114 72 C117 86, 113 99, 106 105 Z" fill="url(#rPetalB)" />
      <path d="M134 105 C143 96, 142 80, 126 72 C123 86, 127 99, 134 105 Z" fill="url(#rPetalB)" />
      <path class="inner-petal" d="M120 93 C112 96, 109 108, 116 115 C123 122, 132 111, 127 101 C125 97, 123 94, 120 93 Z" fill="#ffdbe8" />
      <path d="M110 86 C116 81, 124 81, 130 86" stroke="#f8b3cc" stroke-width="2" fill="none" stroke-linecap="round" />
    </g>
  </g>
</svg>
