<svg xmlns="http://www.w3.org/2000/svg" viewBox="0 0 240 260" role="img" aria-labelledby="title desc">
  <title id="title">Sunflower Smile</title>
  <desc id="desc">A sunflower with a natural sway and layered petals.</desc>
  <defs>
    <linearGradient id="sfStem" x1="0" y1="0" x2="0" y2="1">
      <stop offset="0%" stop-color="#70c864" />
      <stop offset="100%" stop-color="#318f3f" />
    </linearGradient>
    <radialGradient id="sfCenter" cx="50%" cy="45%" r="62%">
      <stop offset="0%" stop-color="#7f5a28" />
      <stop offset="100%" stop-color="#4c3515" />
    </radialGradient>
  </defs>
  <style>
    .plant {
      transform-origin: 120px 224px;
      animation: sunflowerSway 4.7s ease-in-out infinite;
    }

    .head {
      transform-origin: 120px 98px;
      animation: sunflowerNod 3.6s ease-in-out infinite;
    }

    .petals-back {
      transform-origin: 120px 98px;
      animation: petalTurn 10s linear infinite;
    }

    .petals-front {
      transform-origin: 120px 98px;
      animation: petalTurnReverse 12s linear infinite;
    }

    @keyframes sunflowerSway {
      0%,
      100% { transform: rotate(1.8deg); }
      50% { transform: rotate(-2.6deg); }
    }

    @keyframes sunflowerNod {
      0%,
      100% { transform: scale(0.98) rotate(0deg); }
      50% { transform: scale(1.03) rotate(-1.6deg); }
    }

    @keyframes petalTurn {
      from { transform: rotate(0deg); }
      to { transform: rotate(360deg); }
    }

    @keyframes petalTurnReverse {
      from { transform: rotate(0deg); }
      to { transform: rotate(-360deg); }
    }
  </style>

  <g class="plant">
    <path d="M120 224 C111 183, 112 138, 120 101" stroke="url(#sfStem)" stroke-width="7" stroke-linecap="round" fill="none" />
    <path d="M116 173 C93 161, 86 142, 104 134 C123 126, 133 147, 116 173" fill="#4caf58" />
    <path d="M124 156 C147 145, 157 125, 140 118 C122 111, 111 132, 124 156" fill="#66cd6f" />

    <g class="head">
      <g class="petals-back" fill="#f5bb2f">
        <ellipse cx="120" cy="64" rx="11" ry="23" />
        <ellipse cx="120" cy="64" rx="11" ry="23" transform="rotate(30 120 98)" />
        <ellipse cx="120" cy="64" rx="11" ry="23" transform="rotate(60 120 98)" />
        <ellipse cx="120" cy="64" rx="11" ry="23" transform="rotate(90 120 98)" />
        <ellipse cx="120" cy="64" rx="11" ry="23" transform="rotate(120 120 98)" />
        <ellipse cx="120" cy="64" rx="11" ry="23" transform="rotate(150 120 98)" />
        <ellipse cx="120" cy="64" rx="11" ry="23" transform="rotate(180 120 98)" />
        <ellipse cx="120" cy="64" rx="11" ry="23" transform="rotate(210 120 98)" />
        <ellipse cx="120" cy="64" rx="11" ry="23" transform="rotate(240 120 98)" />
        <ellipse cx="120" cy="64" rx="11" ry="23" transform="rotate(270 120 98)" />
        <ellipse cx="120" cy="64" rx="11" ry="23" transform="rotate(300 120 98)" />
        <ellipse cx="120" cy="64" rx="11" ry="23" transform="rotate(330 120 98)" />
      </g>
      <g class="petals-front" fill="#ffd95e">
        <ellipse cx="120" cy="68" rx="9" ry="20" transform="rotate(15 120 98)" />
        <ellipse cx="120" cy="68" rx="9" ry="20" transform="rotate(45 120 98)" />
        <ellipse cx="120" cy="68" rx="9" ry="20" transform="rotate(75 120 98)" />
        <ellipse cx="120" cy="68" rx="9" ry="20" transform="rotate(105 120 98)" />
        <ellipse cx="120" cy="68" rx="9" ry="20" transform="rotate(135 120 98)" />
        <ellipse cx="120" cy="68" rx="9" ry="20" transform="rotate(165 120 98)" />
        <ellipse cx="120" cy="68" rx="9" ry="20" transform="rotate(195 120 98)" />
        <ellipse cx="120" cy="68" rx="9" ry="20" transform="rotate(225 120 98)" />
        <ellipse cx="120" cy="68" rx="9" ry="20" transform="rotate(255 120 98)" />
        <ellipse cx="120" cy="68" rx="9" ry="20" transform="rotate(285 120 98)" />
        <ellipse cx="120" cy="68" rx="9" ry="20" transform="rotate(315 120 98)" />
        <ellipse cx="120" cy="68" rx="9" ry="20" transform="rotate(345 120 98)" />
      </g>
      <circle cx="120" cy="98" r="21" fill="url(#sfCenter)" />
      <circle cx="112" cy="92" r="1.8" fill="#c9964f" />
      <circle cx="120" cy="90" r="1.9" fill="#c9964f" />
      <circle cx="128" cy="92" r="1.8" fill="#c9964f" />
      <circle cx="108" cy="99" r="1.8" fill="#c9964f" />
      <circle cx="116" cy="101" r="1.9" fill="#c9964f" />
      <circle cx="124" cy="101" r="1.9" fill="#c9964f" />
      <circle cx="132" cy="99" r="1.8" fill="#c9964f" />
      <circle cx="112" cy="107" r="1.8" fill="#c9964f" />
      <circle cx="120" cy="108" r="1.9" fill="#c9964f" />
      <circle cx="128" cy="107" r="1.8" fill="#c9964f" />
    </g>
  </g>
</svg>
